<svg height="608" viewBox="0 0 633 608" width="633" xmlns="http://www.w3.org/2000/svg" xmlns:xlink="http://www.w3.org/1999/xlink"><mask id="a" fill="#fff"><path d="m0 607.865h632.152v-607.865h-632.152z" fill="#fff" fill-rule="evenodd"/></mask><g fill="#fff" fill-rule="evenodd"><path d="m193.084 493.3064c0-2.7-2.052-4.968-7.128-4.968h-14.904v10.153h15.228c4.968 0 6.804-2.323 6.804-5.024zm0-14.796c0-2.701-1.836-4.969-6.804-4.969h-15.228v10.098h14.904c4.968 0 7.128-2.321 7.128-4.967zm-7.074 25.38h-21.709v-35.964h21.547c8.964 0 13.716 3.779 13.716 9.342v.486c0 3.78-2.484 7.182-7.506 8.207 5.724.918 8.1 4.752 8.1 7.723v.486c0 5.832-5.184 9.72-14.148 9.72z"/><path d="m207.425 503.89v-35.964h32.671v5.615h-25.921v9.235h19.927v5.454h-19.927v10.044h25.921v5.616z"/><path d="m265.8804 474.9461-7.83 15.12h15.93zm15.499 28.944-4.753-8.91h-21.114l-4.59 8.91h-7.128l19.44-35.964h5.616l19.764 35.964z"/><path d="m325.594 503.89-23.382-24.085-2.268-2.537v26.622h-6.751v-35.964h6.481l22.68 24.029 2.322 2.592v-26.621h6.75v35.964z"/><path d="m357.4531 505.2937c-7.291 0-14.041-1.998-19.603-4.644l2.484-5.345c5.671 2.807 11.664 4.481 17.443 4.481 7.776 0 11.232-2.537 11.232-5.291 0-8.587-30.133-2.863-30.133-16.039 0-6.695 7.237-11.826 18.631-11.826 7.074 0 13.662 2.484 17.713 5.131l-3.673 4.535c-3.348-2.16-8.856-4.158-14.256-4.158-7.021 0-11.665 2.377-11.665 5.455 0 7.83 30.187 2.592 30.187 16.199 0 7.021-7.668 11.502-18.36 11.502"/><path d="m382.223 503.891h6.264v-6.103h-6.264z" mask="url(#a)"/><path d="m410.027 473.542v30.349h-6.75v-30.349h-15.714v-5.615h38.178v5.615z" mask="url(#a)"/><path d="m463.5518 485.4763c0-6.966-5.076-13.177-14.256-13.177-9.181 0-14.203 6.211-14.203 13.177v.864c0 6.966 5.022 13.283 14.203 13.283 9.18 0 14.256-6.317 14.256-13.283zm-14.256 19.817c-12.745 0-21.007-9.179-21.007-18.738v-1.187c0-9.721 8.262-18.739 21.007-18.739 12.798 0 21.06 9.018 21.06 18.739v1.187c0 9.559-8.262 18.738-21.06 18.738zm-210.6039-337.8053h-7.729c-.91 0-1.648-.738-1.648-1.648 0-.911.738-1.649 1.648-1.649h7.729c.911 0 1.648.738 1.648 1.649 0 .91-.737 1.648-1.648 1.648m0 36.9131h-7.729c-.91 0-1.648-.738-1.648-1.648 0-.911.738-1.649 1.648-1.649h7.729c.911 0 1.648.738 1.648 1.649 0 .91-.737 1.648-1.648 1.648m-11.2299 184.2679h14.73v-5.29h-14.73zm16.378 3.297h-18.027c-.91 0-1.648-.739-1.648-1.649v-8.587c0-.91.738-1.648 1.648-1.648h18.027c.911 0 1.649.738 1.649 1.648v8.587c0 .91-.738 1.649-1.649 1.649zm-30.969-203.312h6.574v-10.435h-6.574zm8.223 3.297h-9.871c-.911 0-1.649-.738-1.649-1.648v-13.732c0-.91.738-1.648 1.649-1.648h9.871c.91 0 1.648.738 1.648 1.648v13.732c0 .91-.738 1.648-1.648 1.648z" mask="url(#a)"/><path d="m225.8135 182.3982h-4.72c-.91 0-1.648-.738-1.648-1.648 0-.911.738-1.649 1.648-1.649h4.72c.911 0 1.648.738 1.648 1.649 0 .91-.737 1.648-1.648 1.648m0 6.0596h-4.72c-.91 0-1.648-.738-1.648-1.648 0-.911.738-1.649 1.648-1.649h4.72c.911 0 1.648.738 1.648 1.649 0 .91-.737 1.648-1.648 1.648" mask="url(#a)"/><path d="m230.9634 383.3787c-.911 0-1.648-.738-1.648-1.648v-177.33h-3.502c-.911 0-1.648-.738-1.648-1.648v-36.913c0-.91.737-1.648 1.648-1.648h3.502v-38.269c0-.91.737-1.648 1.648-1.648h7.729c.91 0 1.648.738 1.648 1.648v38.269h3.5c.911 0 1.648.738 1.648 1.648v12.425h25.723c1.187-.405 5.955-2.01 7.999-2.382.893-.153 1.753.432 1.917 1.327.162.896-.432 1.754-1.328 1.917-1.699.309-6.19 1.797-7.776 2.345-.173.059-.354.09-.538.09h-27.645c-.911 0-1.648-.739-1.648-1.649v-12.425h-3.5c-.911 0-1.649-.738-1.649-1.648v-38.269h-4.432v38.269c0 .91-.737 1.648-1.648 1.648h-3.501v33.617h3.501c.911 0 1.648.738 1.648 1.648v178.978c0 .91-.737 1.648-1.648 1.648" mask="url(#a)"/><path d="m238.6916 383.3783c-.91 0-1.648-.738-1.648-1.648v-178.978c0-.91.738-1.648 1.648-1.648h3.5v-15.133c0-.91.738-1.648 1.649-1.648h27.594c.364 0 .718.12 1.006.342 1.478 1.138 4.197 3.121 5.203 3.596 6.595 3.118 27.044 5.296 49.728 5.296 21.457 0 46.671-2.069 53.381-7.867.201-.296.853-1.391.471-2.537-.53-1.595-2.881-3.036-6.619-4.059-.878-.24-1.396-1.146-1.155-2.024.239-.878 1.142-1.399 2.024-1.156 5.012 1.371 8.006 3.475 8.898 6.255.782 2.44-.333 4.718-1.117 5.68-.053.066-.111.128-.174.185-6.221 5.605-26.526 8.82-55.709 8.82-23.487 0-44.037-2.256-51.137-5.612-1.384-.654-4.22-2.761-5.357-3.622h-25.389v15.132c0 .911-.738 1.649-1.648 1.649h-3.5v177.329c0 .91-.738 1.648-1.649 1.648z" mask="url(#a)"/><path d="m327.3716 190.0964c-23.567 0-44.139-2.265-51.189-5.635-.822-.392-1.169-1.377-.777-2.198.393-.821 1.377-1.169 2.198-.776 6.544 3.128 27.009 5.312 49.768 5.312 22.175 0 42.496-2.118 49.416-5.151.834-.368 1.805.013 2.171.847s-.014 1.807-.847 2.172c-7.409 3.247-27.8 5.429-50.74 5.429" mask="url(#a)"/><path d="m283.4849 186.6511c-.59 0-1.162-.317-1.458-.876l-29.268-55.161c-.42-.791-.131-1.773.651-2.211.54-.303 13.919-7.413 73.761-7.413 59.843 0 74.365 7.763 74.954 8.093.385.215.667.577.783 1.003.117.425.05882.88-.164 1.262l-31.649 54.483c-.458.785-1.465 1.056-2.254.597-.787-.458-1.055-1.466-.598-2.254l30.713-52.869c-1.965-.728-5.963-1.966-12.964-3.191-9.971-1.746-28.271-3.827-58.821-3.827-48.083 0-65.798 4.687-70.646 6.39l28.415 53.553c.426.804.12 1.802-.684 2.229-.246.13-.51.192-.771.192m42.9863 60.1192c-6.75 0-11.655-2.307-11.961-2.454-.304-.147-.556-.384-.722-.678l-28.317-50.4c-.447-.794-.165-1.799.629-2.245.793-.448 1.799-.163 2.245.63l28.045 49.916c2.032.824 10.639 3.846 19.748-.003l28.894-49.931c.456-.788 1.465-1.058 2.252-.602.788.456 1.058 1.465.602 2.252l-29.166 50.401c-.174.3-.437.537-.752.678-4.07 1.826-8.028 2.436-11.497 2.436" mask="url(#a)"/><path d="m332.7529 141.1541c-44.208 0-78.484-9.583-78.991-9.728-.875-.25-1.382-1.162-1.132-2.038.251-.875 1.163-1.381 2.038-1.131.746.213 75.376 21.059 146.194.679.875-.252 1.788.253 2.04 1.128s-.253 1.788-1.128 2.04c-23.525 6.77-47.455 9.05-69.021 9.05m44.7578 137.6972c4.165 18.645 6.737 40.873 8.044 54.386 5.677-4.799 19.635-16.615 22.539-19.259 3.096-2.816 2.961-5.434 2.886-6.014-.861-2-8.785-20.371-11.403-24.62-2.72-4.416-9.998-4.493-10.071-4.493zm6.698 59.328c-.211 0-.424-.04-.626-.123-.568-.233-.959-.763-1.015-1.375-1.224-13.338-3.985-38.752-8.73-59.104-.114-.49.002-1.005.315-1.399.312-.394.788-.624 1.291-.624h14.065c.373 0 9.184.069 12.875 6.062 2.882 4.676 11.343 24.387 11.701 25.224.037.085.067.174.088.265.047.194 1.086 4.811-3.86 9.311-3.694 3.363-24.171 20.641-25.041 21.374-.302.256-.68.389-1.063.389z" mask="url(#a)"/><path d="m255.1869 375.7896c4.359 7.44 19.988 10.142 20.148 10.168.056.01.113.023.168.037.128.036 3.188.896 6.206 2.755 6.08 3.742 27.568 4.802 35.335 4.894 7.726-.092 29.212-1.152 35.293-4.895 3.014-1.858 6.075-2.718 6.204-2.754.036-.009.072-.018.108-.025 6.043-1.243 22.264-5.794 26.028-12.065-.032-1.881-.214-9.843-1.154-22.97-.04-.545.194-1.074.623-1.412 9.284-7.328 34.034-27.984 37.027-35.465 2.784-6.967-4.713-19.748-10.737-30.019-1.541-2.627-2.997-5.108-4.269-7.445-4.881-8.978-16.985-7.741-17.11-7.728-.061.007-.124.011-.185.011h-17.471c-.663 0-1.261-.397-1.519-1.009l-2.542-6.036c-.071-.171-.114-.352-.126-.537-.131-.414-2.937-7.347-40.531-7.347-41.538 0-55.079 8.219-55.211 8.302-4.276 2.458-5.552 4.217-5.834 5.074 1.185.235 2.214.787 3.021 1.629 2.107 2.202 2.022 5.578 2.006 5.956-.006.132-.028.263-.065.389-11.281 38.705-15.052 94.764-15.413 100.492zm61.857 21.151c-1.217-.014-28.965-.398-37.063-5.384-2.371-1.459-4.84-2.231-5.289-2.363-1.58-.276-17.981-3.333-22.641-12.264-.138-.265-.202-.561-.184-.858.034-.601 3.61-60.5 15.506-101.481-.009-.759-.21-2.44-1.103-3.365-.476-.493-1.124-.733-1.982-.733-.461 0-.9-.193-1.213-.532-.17-.185-1.009-1.196-.746-2.902.381-2.477 2.815-4.974 7.444-7.634.514-.325 14.429-8.773 56.91-8.773 28.987 0 39.022 4.094 42.337 7.529 1.033 1.071 1.356 2.018 1.451 2.591l2.025 4.808h16.289c1.396-.137 14.523-1.146 20.279 9.439 1.246 2.29 2.688 4.749 4.215 7.352 6.721 11.458 14.339 24.445 10.954 32.911-3.667 9.167-32.393 32.328-37.36 36.286 1.028 14.626 1.106 22.66 1.107 22.741.002.269-.062.536-.187.775-2.051 3.933-7.519 7.51-16.257 10.633-6.031 2.156-11.472 3.325-12.158 3.469-.368.107-2.894.88-5.312 2.371-8.101 4.986-35.845 5.37-37.022 5.384z" mask="url(#a)"/><path d="m325.1309 270.4929c-18.882 0-31.052-2.078-39.105-3.453-3.139-.536-5.617-.959-7.372-1.043-5.768-.281-13.451 4.223-13.528 4.267-.784.46-1.795.203-2.257-.583-.463-.783-.203-1.792.581-2.255.348-.206 8.61-5.056 15.361-4.722 1.955.094 4.521.531 7.769 1.086 7.944 1.356 19.948 3.406 38.551 3.406 25.75 0 42.386-8.488 42.551-8.574.803-.423 1.802-.107 2.222.701.42.807.108 1.802-.699 2.223-.701.365-17.462 8.947-44.074 8.947m-4.8247 117.1778c-44.303 0-66.429-15.277-67.349-15.928-.743-.524-.92-1.551-.396-2.295.526-.743 1.554-.919 2.297-.398.218.153 22.287 15.324 65.448 15.324 22.511 0 38.925-4.962 48.731-9.124 10.623-4.509 15.996-9.078 16.05-9.123.687-.595 1.729-.517 2.324.172.594.689.519 1.728-.17 2.323-.899.778-22.543 19.049-66.935 19.049m.1772-65.3252c-34.563 0-56.62 6.071-56.62 10.251s22.057 10.251 56.62 10.251c34.565 0 56.623-6.071 56.623-10.251s-22.058-10.251-56.623-10.251m0 23.799c-24.085 0-59.917-3.609-59.917-13.548s35.832-13.548 59.917-13.548c24.086 0 59.92 3.609 59.92 13.548s-35.834 13.548-59.92 13.548m-45.4736-50.7863c-.158 0-.319-.022-.479-.071-.871-.264-1.363-1.184-1.099-2.055.929-3.066 1.996-6.014 3.173-8.761.357-.838 1.324-1.226 2.164-.867.837.358 1.224 1.327.866 2.164-1.128 2.637-2.154 5.469-3.048 8.419-.216.712-.869 1.171-1.577 1.171m-4.7925 22.8398c-.083 0-.166-.006-.25-.019-.9-.137-1.519-.978-1.381-1.878.636-4.172 1.524-9.66 2.755-15.102.201-.889 1.084-1.45 1.971-1.244.888.2 1.445 1.083 1.244 1.971-1.207 5.341-2.083 10.753-2.712 14.873-.124.815-.826 1.399-1.627 1.399" mask="url(#a)"/><path d="m264.29 369.0232c-.042 0-.083-.002-.126-.005-.908-.068-1.588-.859-1.52-1.767.5-6.628 1.169-13.728 2.048-21.706.1-.905.907-1.557 1.82-1.458.904.1 1.557.915 1.458 1.82-.875 7.939-1.542 15.002-2.038 21.592-.065.865-.788 1.524-1.642 1.524m-10.7778 5.7012h-14.82c-.911 0-1.649-.738-1.649-1.648 0-.911.738-1.649 1.649-1.649h14.82c.911 0 1.648.738 1.648 1.649 0 .91-.737 1.648-1.648 1.648" mask="url(#a)"/><path d="m410.7451 408.2058h-202.209c-.559 0-1.079-.282-1.383-.751-.304-.468-.35-1.059-.123-1.568l14.92-33.482c.265-.595.855-.977 1.505-.977h7.508c.911 0 1.649.738 1.649 1.648s-.738 1.649-1.649 1.649h-6.437l-13.451 30.184h197.493l-8.498-30.184h-13.739c-.91 0-1.648-.739-1.648-1.649s.738-1.648 1.648-1.648h14.987c.739 0 1.387.491 1.587 1.202l9.427 33.481c.14.496.039 1.031-.273 1.442-.311.411-.797.653-1.314.653" mask="url(#a)"/><path d="m410.7451 417.4558h-202.209c-.911 0-1.649-.738-1.649-1.648v-9.25c0-.911.738-1.649 1.649-1.649.91 0 1.648.738 1.648 1.649v7.601h198.913v-7.601c0-.911.738-1.649 1.648-1.649s1.648.738 1.648 1.649v9.25c0 .91-.738 1.648-1.648 1.648m-118.8008-230.0967c-.522 0-1.035-.247-1.355-.708l-34.223-49.267c-.519-.748-.334-1.774.413-2.294.748-.518 1.776-.334 2.295.414l34.223 49.266c.519.748.334 1.775-.414 2.294-.287.199-.614.295-.939.295m34.7383 53.7998h-.007c-.55-.003-1.062-.278-1.366-.736l-30.425-45.799c-.504-.758-.298-1.781.461-2.285.757-.504 1.781-.297 2.285.461l29.066 43.752 29.651-43.765c.51-.751 1.533-.952 2.289-.44.754.51.95 1.536.44 2.29l-31.029 45.798c-.307.453-.818.724-1.365.724m49.3408-74.6044c-.345 0-.691-.107-.987-.329-.729-.546-.877-1.579-.331-2.308l23.656-31.568c.548-.731 1.582-.874 2.308-.331.728.546.876 1.579.331 2.307l-23.657 31.569c-.324.432-.819.66-1.32.66m-10.7275 14.3144c-.345 0-.691-.107-.988-.329-.729-.547-.876-1.58-.33-2.309l5.513-7.353c.547-.729 1.581-.873 2.309-.33.728.547.876 1.58.33 2.308l-5.514 7.354c-.324.431-.819.659-1.32.659m-206.3481 12.3076c-.096 5.937-4.046 9.816-9.283 9.732l-2.484-.041.082-5.074 1.674.028c3.671.058 5.587-1.584 5.639-4.77.051-3.131-1.813-4.781-4.566-4.825-3.185-.052-5.206 1.319-8.14 5.808-2.656 4.007-6.234 8.216-11.417 8.132-5.128-.082-9.122-3.549-9.025-9.649.095-5.83 3.988-9.493 9.279-9.408l2.321.037-.079 4.858-1.673-.026c-3.023-.049-5.422 1.37-5.477 4.771-.045 2.808 1.605 4.292 4.034 4.331 3.185.051 4.883-1.379 8.313-6.508 3.486-5.181 6.547-7.508 11.19-7.433 5.938.096 9.703 4.368 9.612 10.037m1.6318-21.9726c-.837 5.771-4.854 9.39-10.732 8.537l-27.092-3.931.736-5.076 27.093 3.93c3.152.458 5.087-.844 5.567-4.157.481-3.313-1.004-5.111-4.157-5.569l-27.092-3.929.729-5.024 27.092 3.931c5.877.852 8.701 5.464 7.856 11.288m-21.5108-33.9395c-2.282-.663-3.82-.209-4.482 2.072l-1.506 5.187 12.239 3.554 1.507-5.186c.662-2.282-.446-3.504-2.676-4.151zm11.943 6.898-1.491 5.135 13.848 4.022-1.415 4.875-34.542-10.031 2.906-10.009c1.627-5.602 5.358-7.218 10.337-5.772l4.771 1.386c4.875 1.415 7.213 4.793 5.586 10.394zm-2.8277-29.9185c-2.173-.962-3.757-.719-4.72 1.454l-2.186 4.938 11.653 5.16 2.187-4.938c.962-2.173.028-3.531-2.095-4.471zm10.911 8.435-2.164 4.888 13.184 5.838-2.056 4.642-32.886-14.563 4.221-9.53c2.361-5.332 6.274-6.435 11.015-4.335l4.543 2.012c4.641 2.055 6.504 5.716 4.143 11.048zm2.6114-30.5229c-2.613-1.627-5.349-1.423-7.119 1.419s-.718 5.342 1.894 6.97l15.126 9.421c2.614 1.627 5.321 1.468 7.091-1.373 1.77-2.842.747-5.388-1.866-7.016zm20.888 18.863c-3.569 5.73-9.069 6.185-14.065 3.073l-14.393-8.964c-4.951-3.084-6.968-8.221-3.399-13.951 3.597-5.775 9.069-6.184 14.019-3.101l14.393 8.964c4.996 3.112 7.042 8.203 3.445 13.979zm-6.4133-39.6569c-1.574-1.316-3.247-1.589-4.806.275l-3.394 4.061 9.197 7.689 3.048-3.646c1.594-1.905 1.383-3.842-.689-5.573zm25.429 13.869c-2.599 3.108-4.369 3.457-7.228 1.068l-5.386-4.503c-1.905-1.594-3.917-1.797-5.579.191l-3.257 3.895 12.015 10.044-3.291 3.936-27.591-23.069 6.686-7.995c3.74-4.475 7.64-4.593 11.576-1.302l3.024 2.528c2.693 2.252 3.546 4.514 1.869 7.615 2.595-2.263 5.692-1.505 7.887.331l5.013 4.192c.746.623 1.354.569 2.047-.26l2.941 2.46z" mask="url(#a)"/><path d="m190.155 52.733 21.125 23.05-3.782 3.466-21.124-23.05-5.454 4.998-3.174-3.463 14.649-13.427 3.175 3.464z" mask="url(#a)"/><path d="m225.847 47.021 7.766 12.211-4.283 2.724-7.765-12.211-18.868-13.469 4.647-2.955 13.861 10.829-3.928-17.147 4.328-2.753z" mask="url(#a)"/><path d="m243.3081 23.9744c-1.287-2.796-3.685-4.13-6.726-2.729-3.042 1.4-3.539 4.066-2.251 6.862l7.453 16.188c1.287 2.797 3.635 4.154 6.676 2.753 3.042-1.4 3.588-4.089 2.301-6.886zm7.072 27.244c-6.132 2.823-10.976.178-13.437-5.169l-7.092-15.404c-2.439-5.299-1.298-10.699 4.834-13.522 6.182-2.845 10.977-.177 13.415 5.121l7.092 15.404c2.461 5.347 1.37 10.724-4.812 13.57zm20.9856-7.8886c-5.593 1.652-10.56-.483-12.243-6.181l-7.76-26.256 4.92-1.454 7.76 26.257c.902 3.055 2.894 4.269 6.105 3.321 3.211-.95 4.223-3.051 3.32-6.106l-7.759-26.257 4.868-1.438 7.759 26.256c1.683 5.697-1.324 10.189-6.97 11.858m21.8291-33.9306c-.298-2.029-1.364-3.347-3.769-2.994l-5.234.769 1.74 11.86 4.701-.691c2.458-.36 3.589-1.946 3.198-4.617zm9.735 27.276c-4.006.588-5.56-.33-6.101-4.015l-1.02-6.946c-.361-2.457-1.725-3.948-4.29-3.572l-5.021.737 2.274 15.493-5.075.745-5.224-35.578 10.311-1.514c5.769-.847 8.757 1.661 9.502 6.736l.572 3.9c.511 3.472-.359 5.728-3.676 6.925 3.444.04 5.248 2.667 5.664 5.499l.95 6.463c.14.962.63 1.327 1.699 1.169l.556 3.793z" mask="url(#a)"/><path d="m314.041 35.944 1.17-35.944 5.073.165-1.017 31.302 11.387.371-.152 4.641z" mask="url(#a)"/><path d="m351.0532 12.4607c.499-3.037-.74-5.484-4.044-6.027s-5.208 1.387-5.707 4.424l-2.89 17.584c-.5 3.038.687 5.475 3.991 6.019 3.303.543 5.26-1.379 5.759-4.416zm-9.396 26.528c-6.66-1.093-9.192-5.998-8.237-11.805l2.75-16.732c.946-5.754 4.914-9.59 11.575-8.494 6.714 1.104 9.193 5.998 8.246 11.752l-2.75 16.731c-.955 5.808-4.87 9.652-11.584 8.548zm21.6836 5.182c-6.494-2.03-8.186-7.481-6.607-12.533l5.253-16.803c1.579-5.052 6.057-8.518 12.551-6.487 6.496 2.03 8.074 6.936 6.51 11.936l-1.16 3.711-4.381-1.369 1.129-3.608c.902-2.886-.1-5.293-3.295-6.292-3.248-1.016-5.459.444-6.279 3.073l-5.608 17.936c-.822 2.629.164 5.088 3.41 6.103 3.196.999 5.373-.356 6.293-3.295l1.127-3.608 4.381 1.37-1.16 3.711c-1.562 5-5.67 8.185-12.164 6.155m31.5977-18.417-8.967 12.069 5.371 2.532zm-6.67 27.714 2.041-8.767-7.033-3.313-5.459 7.156-4.494-2.117 22.699-29.055 4.885 2.301-7.949 36.004z" mask="url(#a)"/><path d="m394.411 56.741 19.279-30.365 4.285 2.72-16.789 26.445 9.621 6.107-2.49 3.921z" mask="url(#a)"/><path d="m445.2334 60.2888c1.391-1.509 1.744-3.167-.043-4.813l-3.891-3.588-8.127 8.814 3.495 3.221c1.826 1.684 3.771 1.567 5.601-.418zm-15.086 24.728c-2.978-2.747-3.24-4.532-.715-7.271l4.758-5.161c1.684-1.826 1.984-3.826.08-5.583l-3.732-3.442-10.616 11.515-3.773-3.478 24.381-26.443 7.662 7.066c4.289 3.953 4.217 7.854.74 11.626l-2.672 2.898c-2.381 2.581-4.681 3.324-7.699 1.497 2.137 2.703 1.229 5.76-.711 7.863l-4.43 4.805c-.66.715-.634 1.325.161 2.057l-2.6 2.819zm32.1251-4.0043c2.385-1.946 3.074-4.601.957-7.193-2.117-2.594-4.822-2.407-7.207-.46l-13.801 11.269c-2.385 1.946-3.109 4.56-.992 7.153 2.117 2.592 4.857 2.448 7.24.501zm-24.598 13.671c-4.269-5.228-2.922-10.579 1.637-14.302l13.133-10.723c4.517-3.687 10.029-3.937 14.299 1.291 4.302 5.27 2.922 10.581-1.596 14.268l-13.133 10.723c-4.558 3.722-10.037 4.013-14.34-1.257zm36.846 2.4032-14.129 5.15 3.096 5.07zm-20.812 19.485 6.525-6.202-4.053-6.635-8.498 2.976-2.59-4.239 34.942-11.792 2.816 4.608-26.439 25.708zm6.0757 14.1859c-2.393-5.438-.42-10.613 4.375-12.722l2.275-1 2.043 4.647-1.531.674c-3.363 1.478-4.42 3.772-3.137 6.689 1.262 2.867 3.645 3.59 6.166 2.481 2.916-1.284 4.18-3.373 4.975-8.678.742-4.752 2.238-10.07 6.984-12.158 4.696-2.066 9.774-.582 12.231 5.004 2.349 5.339.338 10.294-4.506 12.425l-2.127.936-1.957-4.449 1.533-.675c2.77-1.218 4.358-3.509 2.987-6.624-1.129-2.571-3.25-3.231-5.475-2.253-2.916 1.283-3.861 3.292-4.84 9.386-1.006 6.166-2.816 9.558-7.068 11.428-5.44 2.392-10.645.079-12.928-5.111" mask="url(#a)"/><path d="m498.347 143.69-30.029 8.702-1.428-4.927 30.029-8.702-2.06-7.105 4.513-1.308 5.532 19.086-4.514 1.308z" mask="url(#a)"/><path d="m470.644 161.347 35.518-5.65 2.63 16.532-4.585.729-1.834-11.518-10.133 1.611 1.324 8.32-4.373.696-1.324-8.32-11.838 1.883 1.832 11.52-4.586.729z" mask="url(#a)"/><path d="m501.8994 193.1179c2.053-.058 3.486-.962 3.418-3.392l-.148-5.29-11.985.335.133 4.751c.07 2.483 1.512 3.793 4.211 3.718zm-28.236 6.463c-.114-4.049.98-5.484 4.705-5.589l7.019-.196c2.483-.07 4.125-1.25 4.051-3.841l-.141-5.075-15.656.438-.142-5.129 35.953-1.006.291 10.419c.164 5.83-2.678 8.504-7.807 8.647l-3.941.111c-3.51.098-5.649-1.031-6.448-4.467-.443 3.416-3.265 4.901-6.127 4.981l-6.533.182c-.97.028-1.39.472-1.361 1.551l-3.832.108zm-465.3909 106.7167c-3.149 0-5.849-1.024-8.272-2.549l1.499-2.274c2.424 1.549 4.649 2.299 7.148 2.299 2.925 0 4.299-1.124 4.299-2.45 0-3.798-12.372-1.524-12.372-7.573 0-2.949 2.949-5.273 7.698-5.273 3.199 0 5.974 1.199 7.599 2.824l-1.85 1.899c-1.399-1.224-3.55-2.199-5.799-2.199-2.774 0-4.648.999-4.648 2.425 0 3.523 12.396 1.648 12.396 7.598 0 3.149-3.174 5.273-7.698 5.273" mask="url(#a)"/><path d="m27.348 291.601v14.097h-3v-14.097h-6.474v-2.55h15.947v2.55z" mask="url(#a)"/><path d="m41.9473 292.3757-3.124 6.898h6.323zm6.174 13.322-1.9-4.149h-8.398l-1.85 4.149h-3.124l7.848-16.646h2.649l7.974 16.646z" mask="url(#a)"/><path d="m60.097 299.024v6.674h-2.999v-6.698l-7.498-9.949h3.499l5.623 7.7 5.324-7.7h3.449z" mask="url(#a)"/><path d="m83.9727 292.3757-3.125 6.898h6.324zm6.173 13.322-1.9-4.149h-8.397l-1.85 4.149h-3.125l7.849-16.646h2.649l7.973 16.646z" mask="url(#a)"/><path d="m102.196 291.601v14.097h-2.999v-14.097h-6.474v-2.55h15.947v2.55z" mask="url(#a)"/><path d="m28.521 335.698v-7.173h-10.021v7.173h-3.001v-16.646h3.001v7.048h10.021v-7.048h2.999v16.646z" mask="url(#a)"/><path d="m49.0703 326.3504c0-2.85-1.975-5.299-5.623-5.299-3.649 0-5.599 2.449-5.599 5.299v2.024c0 2.85 1.95 5.349 5.599 5.349 3.648 0 5.623-2.499 5.623-5.349zm-5.623 9.947c-5.349 0-8.623-3.799-8.623-7.873v-2.074c0-4.149 3.274-7.873 8.623-7.873 5.373 0 8.647 3.724 8.647 7.873v2.074c0 4.074-3.274 7.873-8.647 7.873z" mask="url(#a)"/><path d="m73.444 335.698v-13.047l-.824 1.775-5.9 11.272h-1.798l-5.825-11.272-.824-1.775v13.047h-2.875v-16.646h4.175l5.599 11.198.774 1.699.774-1.699 5.525-11.198h4.124v16.646z" mask="url(#a)"/><path d="m80.474 335.698v-16.646h13.597v2.549h-10.598v4.299h8.073v2.449h-8.073v4.799h10.598v2.55z" mask="url(#a)"/><path d="m523.1289 300.7244c0-1.3-.875-2.249-2.975-2.249h-5.873v4.773h6.048c2.075 0 2.8-1 2.8-2.199zm-.025-6.974c0-1.199-.749-2.173-2.799-2.173h-6.024v4.748h5.824c2.074 0 2.999-1 2.999-2.274zm-2.874 11.948h-8.973v-16.647h8.873c3.948 0 5.873 1.725 5.873 4.275v.299c0 1.825-1.074 3.275-3.224 3.7 2.45.4 3.474 2.049 3.474 3.524v.45c0 2.624-2.1 4.399-6.023 4.399zm21.1236-11.8969c0-1.15-.824-2.225-3.174-2.225h-5.549v5.074h5.674c2.074 0 3.049-1.025 3.049-2.374zm1.65 11.946c-1.174 0-1.65-1.05-1.724-2.649l-.075-1.924c-.076-1.575-.725-2.3-3.425-2.3h-5.149v6.823h-2.999v-16.646h8.199c4.573 0 6.573 1.926 6.573 4.475v.25c0 1.824-.875 3.398-3.775 3.949 2.9.224 3.624 1.699 3.624 3.523l.026 1.651c.024.999.224 1.673.974 2.298v.55z" mask="url(#a)"/><path d="m548.182 305.698v-16.646h13.597v2.549h-10.598v4.299h8.073v2.45h-8.073v4.798h10.598v2.55z" mask="url(#a)"/><path d="m584.501 305.698h-2.724l-4.749-12.497-4.824 12.497h-2.749l-6.224-16.646h3.2l4.499 12.847 4.898-12.847h2.5l4.999 12.847 4.498-12.847h3.125z" mask="url(#a)"/><path d="m607.4541 292.3757-3.124 6.898h6.323zm6.174 13.322-1.9-4.149h-8.398l-1.85 4.149h-3.124l7.848-16.646h2.649l7.974 16.646z" mask="url(#a)"/><path d="m625.679 291.601v14.097h-2.999v-14.097h-6.474v-2.55h15.947v2.55z" mask="url(#a)"/><path d="m545.328 335.698v-7.173h-10.022v7.173h-2.999v-16.646h2.999v7.048h10.022v-7.048h2.999v16.646z" mask="url(#a)"/><path d="m565.8779 326.3504c0-2.85-1.975-5.299-5.624-5.299-3.648 0-5.599 2.449-5.599 5.299v2.024c0 2.85 1.951 5.349 5.599 5.349 3.649 0 5.624-2.499 5.624-5.349zm-5.624 9.947c-5.349 0-8.623-3.799-8.623-7.873v-2.074c0-4.149 3.274-7.873 8.623-7.873 5.374 0 8.648 3.724 8.648 7.873v2.074c0 4.074-3.274 7.873-8.648 7.873z" mask="url(#a)"/><path d="m590.252 335.698v-13.047l-.825 1.775-5.899 11.272h-1.799l-5.824-11.272-.825-1.775v13.047h-2.874v-16.646h4.174l5.599 11.198.774 1.699.775-1.699 5.524-11.198h4.124v16.646z" mask="url(#a)"/><path d="m597.28 335.698v-16.646h13.597v2.549h-10.597v4.299h8.072v2.449h-8.072v4.799h10.597v2.55z" mask="url(#a)"/><path d="m333.3447 591.4871c.703 2.109 1.406 4.936 1.406 4.936s-13.387-2.827-14.793-3.178c-1.252-.127-2.588.351-2.588 1.758 0 1.42.816 15.862.816 15.862h-4.219s.816-14.442.816-15.862c0-1.407-1.35-1.885-2.574-1.758-1.42.351-14.807 3.178-14.807 3.178s.703-2.827 1.42-4.936c.689-2.109 0-2.461-.717-3.164-.366-.352-14.794-12.994-14.794-12.994l2.461-1.069c1.406-.689 1.04-1.603.703-2.447-.352-1.068-2.827-9.464-2.827-9.464s6.694 1.407 8.114 1.758c1.055.338 1.407-.351 1.758-1.055.352-.703 2.11-4.542 2.11-4.542s7.397 8.41 7.748 8.761c1.42 1.055 2.826 0 2.475-1.406 0-1.406-3.881-18.225-3.881-18.225s4.232 2.447 5.639 3.15c1.068.703 1.772.703 2.475-.703.703-1.055 5.976-11.222 5.976-11.222s5.288 10.167 6.005 11.222c.703 1.406 1.421 1.406 2.475.703 1.407-.703 5.639-3.15 5.639-3.15s-3.881 16.819-3.881 18.225c-.351 1.406 1.068 2.461 2.475 1.406.351-.338 7.748-8.761 7.748-8.761s1.758 3.853 2.11 4.556c.351.703.703 1.393 1.757 1.055 1.407-.352 8.115-1.758 8.115-1.758s-2.49 8.395-2.827 9.465c-.337.829-.703 1.758.703 2.446l2.461 1.055s-14.442 12.642-14.794 12.994c-.703.703-1.406 1.055-.703 3.164" mask="url(#a)"/></g></svg>