<svg xmlns="http://www.w3.org/2000/svg" width="313" height="250" viewBox="0 0 313 250">
  <g fill="#FFF">
    <path d="M91.8972332,248.95751 L81.1758893,248.95751 L81.1758893,231.170949 L91.8231225,231.170949 C96.2697628,231.170949 98.5968379,233.038538 98.5968379,235.785573 L98.5968379,236.022727 C98.5968379,237.890316 97.3715415,239.575099 94.8913043,240.079051 C97.7173913,240.533597 98.8932806,242.425889 98.8932806,243.893281 L98.8932806,244.135375 C98.8932806,247.035573 96.3438735,248.95751 91.8972332,248.95751 Z M95.3903162,236.417984 C95.3903162,235.083992 94.486166,233.947628 92.0306324,233.947628 L84.5108696,233.947628 L84.5108696,238.937747 L91.8972332,238.937747 C94.3675889,238.937747 95.4150198,237.791502 95.4150198,236.467391 L95.3903162,236.417984 Z M95.3903162,243.730237 C95.3903162,242.396245 94.3774704,241.259881 91.8725296,241.259881 L84.5108696,241.259881 L84.5108696,246.274704 L92.0355731,246.274704 C94.5059289,246.274704 95.3952569,245.128458 95.3952569,243.804348 L95.3903162,243.730237 Z"/>
    <polygon points="102.485 248.958 102.485 231.171 118.626 231.171 118.626 233.943 105.82 233.943 105.82 238.508 115.662 238.508 115.662 241.201 105.82 241.201 105.82 246.141 118.626 246.141 118.626 248.918"/>
    <path d="M139.021739,248.95751 L136.674901,244.565217 L126.240119,244.565217 L123.972332,248.967391 L120.449605,248.967391 L130.054348,231.18083 L132.831028,231.18083 L142.593874,248.967391 L139.021739,248.95751 Z M131.363636,234.683794 L127.495059,242.15415 L135.375494,242.15415 L131.363636,234.683794 Z"/>
    <polygon points="160.865 248.958 149.313 237.06 148.192 235.805 148.192 248.958 144.857 248.958 144.857 231.171 148.058 231.171 159.264 243.029 160.415 244.308 160.415 231.191 163.75 231.191 163.75 248.977"/>
    <path d="M176.605731,249.649209 C173.2479,249.611279 169.940379,248.828274 166.921937,247.356719 L168.147233,244.713439 C170.814085,246.10127 173.763275,246.860116 176.768775,246.931818 C180.607708,246.931818 182.317194,245.676877 182.317194,244.318182 C182.317194,240.074111 167.43083,242.900198 167.43083,236.413043 C167.43083,233.102767 171.002964,230.568182 176.635375,230.568182 C179.730346,230.587371 182.759322,231.464765 185.385375,233.102767 L183.572134,235.34585 C181.450032,234.042286 179.016828,233.332459 176.52668,233.290514 C173.068182,233.290514 170.76581,234.461462 170.76581,235.983202 C170.76581,239.851779 185.676877,237.262846 185.676877,243.987154 C185.676877,247.435771 181.892292,249.649209 176.605731,249.649209 Z"/>
    <polygon points="188.844 248.958 188.844 245.944 191.942 245.944 191.942 248.958"/>
    <polygon points="202.569 233.962 202.569 248.958 199.234 248.958 199.234 233.962 191.482 233.962 191.482 231.191 210.346 231.191 210.346 233.962"/>
    <path d="M221.986166 249.649209C215.686759 249.649209 211.610672 245.113636 211.610672 240.395257L211.610672 239.807312C211.610672 235.004941 215.6917 230.548419 221.986166 230.548419 228.280632 230.548419 232.391304 234.995059 232.391304 239.807312L232.391304 240.395257C232.391304 245.113636 228.305336 249.649209 221.986166 249.649209zM229.02668 239.86166C229.02668 236.403162 226.521739 233.349802 221.986166 233.349802 217.450593 233.349802 214.965415 236.417984 214.965415 239.86166L214.965415 240.286561C214.965415 243.745059 217.435771 246.847826 221.986166 246.847826 226.536561 246.847826 229.02668 243.730237 229.02668 240.286561L229.02668 239.86166zM117.929842 82.7519763L114.130435 82.7519763C113.680203 82.7519763 113.315217 82.386991 113.315217 81.9367589 113.315217 81.4865268 113.680203 81.1215415 114.130435 81.1215415L117.949605 81.1215415C118.399837 81.1215415 118.764822 81.4865268 118.764822 81.9367589 118.764822 82.386991 118.399837 82.7519763 117.949605 82.7519763L117.929842 82.7519763zM117.929842 100.988142L114.130435 100.988142C113.680203 100.988142 113.315217 100.623157 113.315217 100.172925 113.315217 99.7226928 113.680203 99.3577075 114.130435 99.3577075L117.949605 99.3577075C118.399837 99.3577075 118.764822 99.7226928 118.764822 100.172925 118.764822 100.623157 118.399837 100.988142 117.949605 100.988142L117.929842 100.988142zM120.474308 193.675889L111.581028 193.675889C111.36527 193.675889 111.158421 193.589847 111.006322 193.436821 110.854222 193.283794 110.769435 193.076425 110.770736 192.860672L110.770736 188.616601C110.769435 188.400847 110.854222 188.193479 111.006322 188.040452 111.158421 187.887425 111.36527 187.801383 111.581028 187.801383L120.474308 187.801383C120.92454 187.801383 121.289526 188.166369 121.289526 188.616601L121.289526 192.860672C121.289526 193.310904 120.92454 193.675889 120.474308 193.675889L120.474308 193.675889zM112.381423 192.045455L119.659091 192.045455 119.659091 189.431818 112.381423 189.431818 112.381423 192.045455zM109.23419 94.8616602L104.357708 94.8616602C104.141498 94.8616602 103.934145 94.7757714 103.781262 94.6228884 103.628379 94.4700055 103.54249 94.2626518 103.54249 94.0464427L103.54249 87.2381423C103.54249 87.0219332 103.628379 86.8145795 103.781262 86.6616965 103.934145 86.5088136 104.141498 86.4229249 104.357708 86.4229249L109.23419 86.4229249C109.450399 86.4229249 109.657753 86.5088136 109.810635 86.6616965 109.963518 86.8145795 110.049407 87.0219332 110.049407 87.2381423L110.049407 94.0217391C110.056091 94.242196 109.973162 94.4559533 109.819548 94.6142216 109.665935 94.7724899 109.454748 94.8617614 109.23419 94.8616602zM105.172925 93.2312253L108.423913 93.2312253 108.423913 88.0533597 105.172925 88.0533597 105.172925 93.2312253z"/>
    <path d="M111.566206 90.1185771L109.23419 90.1185771C108.783958 90.1185771 108.418972 89.7535918 108.418972 89.3033597 108.418972 88.8531276 108.783958 88.4881423 109.23419 88.4881423L111.566206 88.4881423C112.016438 88.4881423 112.381423 88.8531276 112.381423 89.3033597 112.381423 89.7535918 112.016438 90.1185771 111.566206 90.1185771zM111.566206 93.1126482L109.23419 93.1126482C108.783958 93.1126482 108.418972 92.747663 108.418972 92.2974308 108.418972 91.8471987 108.783958 91.4822134 109.23419 91.4822134L111.566206 91.4822134C112.016438 91.4822134 112.381423 91.8471987 112.381423 92.2974308 112.381423 92.747663 112.016438 93.1126482 111.566206 93.1126482z"/>
    <path d="M114.130435,189.416996 C113.680203,189.416996 113.315217,189.052011 113.315217,188.601779 L113.315217,100.988142 L111.585968,100.988142 C111.370211,100.988146 111.163362,100.9021 111.011262,100.749074 C110.859163,100.596047 110.774376,100.388678 110.775677,100.172925 L110.775677,81.9367589 C110.774376,81.7210054 110.859163,81.5136368 111.011262,81.3606102 C111.163362,81.2075836 111.370211,81.1215375 111.585968,81.1215415 L113.315217,81.1215415 L113.315217,62.2134387 C113.315217,61.7632066 113.680203,61.3982213 114.130435,61.3982213 L117.949605,61.3982213 C118.399837,61.3982213 118.764822,61.7632066 118.764822,62.2134387 L118.764822,81.1215415 L120.494071,81.1215415 C120.944303,81.1215415 121.309289,81.4865268 121.309289,81.9367589 L121.309289,88.0731225 L134.016798,88.0731225 C134.604743,87.8754941 136.981225,87.0849802 137.969368,86.8972332 C138.256204,86.8451614 138.549031,86.9500704 138.737545,87.1724419 C138.926059,87.3948135 138.981619,87.7008642 138.883296,87.9753076 C138.784973,88.249751 138.547706,88.4508926 138.26087,88.5029644 C137.420949,88.6561265 135.202569,89.3873518 134.416996,89.6590909 C134.332843,89.6885756 134.244307,89.7036099 134.155138,89.7035573 L120.474308,89.7035573 C120.024076,89.7035573 119.659091,89.3385721 119.659091,88.8883399 L119.659091,82.7519763 L117.929842,82.7519763 C117.47961,82.7519763 117.114625,82.386991 117.114625,81.9367589 L117.114625,63.0286561 L114.925889,63.0286561 L114.925889,81.9367589 C114.925889,82.386991 114.560904,82.7519763 114.110672,82.7519763 L112.381423,82.7519763 L112.381423,99.3577075 L114.130435,99.3577075 C114.580667,99.3577075 114.945652,99.7226928 114.945652,100.172925 L114.945652,188.61166 C114.940241,189.058029 114.576836,189.416996 114.130435,189.416996 Z"/>
    <path d="M117.929842,189.416996 C117.47961,189.416996 117.114625,189.052011 117.114625,188.601779 L117.114625,100.163043 C117.114625,99.7128113 117.47961,99.3478261 117.929842,99.3478261 L119.659091,99.3478261 L119.659091,91.8972332 C119.659091,91.4470011 120.024076,91.0820158 120.474308,91.0820158 L134.105731,91.0820158 C134.285214,91.0822666 134.459337,91.1432097 134.599802,91.2549407 C135.417024,91.9009946 136.275208,92.4934717 137.168972,93.0286561 C140.429842,94.5701581 150.533597,95.6472332 161.73913,95.6472332 C172.341897,95.6472332 184.797431,94.6245059 188.112648,91.7588933 C188.375403,91.3970293 188.460734,90.9358775 188.344862,90.5039526 C188.083004,89.7183794 186.921937,89.0217391 185.074111,88.4980237 C184.641615,88.3793262 184.387231,87.9324957 184.505929,87.5 C184.624626,87.0675043 185.071457,86.8131206 185.503953,86.9318182 C187.974308,87.6086957 189.456522,88.6462451 189.901186,90.0197628 C190.179532,90.9897286 189.973543,92.0343873 189.347826,92.826087 C189.323621,92.8590961 189.295407,92.8889692 189.263834,92.9150198 C186.190711,95.6867589 176.156126,97.2727273 161.73913,97.2727273 C150.133399,97.2727273 140,96.1610672 136.472332,94.5009881 C135.548935,93.9698531 134.665499,93.3720887 133.829051,92.7124506 L121.289526,92.7124506 L121.289526,100.187747 C121.289526,100.637979 120.92454,101.002964 120.474308,101.002964 L118.745059,101.002964 L118.745059,188.601779 C118.745059,189.052011 118.380074,189.416996 117.929842,189.416996 Z"/>
    <path d="M161.744071,93.9229249 C150.098814,93.9229249 139.935771,92.8013834 136.452569,91.1363636 C136.043267,90.9426274 135.868517,90.4537683 136.062253,90.0444664 C136.255989,89.6351645 136.744848,89.460414 137.15415,89.6541502 C140.390316,91.2005929 150.494071,92.277668 161.744071,92.277668 C172.702569,92.277668 182.742095,91.2302372 186.161067,89.7332016 C186.358804,89.6456283 186.583344,89.6407348 186.784708,89.7196103 C186.986073,89.7984858 187.147551,89.9545845 187.233202,90.1531621 C187.409779,90.5652544 187.222733,91.0427706 186.813241,91.2252964 C183.152174,92.8458498 173.078063,93.9229249 161.744071,93.9229249 Z"/>
    <path d="M140.059289 92.2184253C139.759334 92.2184253 139.483717 92.0533753 139.342885 91.7885375L124.881423 64.5306324C124.674644 64.1398021 124.817121 63.6553811 125.202569 63.4387352 125.469368 63.2905138 132.08004 59.777668 161.645257 59.777668 191.210474 59.777668 198.389328 63.6116601 198.675889 63.7747036 198.866189 63.8813248 199.006524 64.0589647 199.066206 64.2687747 199.123056 64.4791367 199.092781 64.7035305 198.982213 64.8913043L183.344862 91.8083004C183.237377 91.9956917 183.059511 92.132403 182.850777 92.1880656 182.642042 92.2437283 182.419722 92.2137331 182.233202 92.1047431 181.844535 91.8770932 181.712191 91.3785978 181.936759 90.9881423L197.134387 64.8764822C195.043859 64.162343 192.894617 63.6332988 190.711462 63.2954545 185.770751 62.4357708 176.744071 61.4081028 161.650198 61.4081028 137.895257 61.4081028 129.140316 63.7203557 126.744071 64.5652174L140.785573 91.0227273C140.922083 91.2751687 140.914876 91.5809871 140.766625 91.8267175 140.618375 92.072448 140.3512 92.2214267 140.064229 92.2184253L140.059289 92.2184253zM161.299407 121.922093C159.260826 121.931294 157.242315 121.519181 155.370553 120.711462 155.221087 120.637509 155.097189 120.520494 155.014822 120.375494L141.022727 95.4743083C140.861376 95.2199187 140.853464 94.8972833 141.002152 94.6352908 141.15084 94.3732982 141.43189 94.2146568 141.733026 94.2227416 142.034162 94.2308265 142.306295 94.4043197 142.440711 94.673913L156.299407 119.337945C157.287549 119.743083 161.556324 121.240119 166.057312 119.337945L180.335968 94.6689723C180.481593 94.4165564 180.750818 94.2610043 181.042229 94.2609109 181.33364 94.2608175 181.602964 94.4161971 181.74875 94.6685196 181.894537 94.9208421 181.894636 95.2317738 181.749012 95.4841897L167.336957 120.385375C167.251417 120.532017 167.121724 120.647875 166.966403 120.716403 165.18428 121.515608 163.252525 121.926547 161.299407 121.922093L161.299407 121.922093z"/>
    <path d="M164.402174 69.7381423C142.564229 69.7381423 125.62747 65.0049407 125.370553 64.9357708 125.081481 64.8634988 124.854869 64.6392711 124.779544 64.3509798 124.704218 64.0626885 124.792181 63.7562679 125.008953 63.5518278 125.225725 63.3473878 125.536767 63.2775025 125.820158 63.3695652 126.185771 63.4733202 163.0583 73.7747036 198.048419 63.7055336 198.327312 63.6252194 198.627867 63.6997938 198.836868 63.9011652 199.045868 64.1025366 199.131563 64.4001121 199.06167 64.6817977 198.991778 64.9634832 198.776917 65.1864843 198.498024 65.2667984 186.882411 68.6116601 175.059289 69.7381423 164.402174 69.7381423zM189.827075 167.08498C189.720565 167.084447 189.615059 167.064351 189.51581 167.025692 189.237411 166.907643 189.047228 166.64519 189.021739 166.343874 188.414032 159.752964 187.045455 147.198617 184.708498 137.144269 184.656416 136.904362 184.715221 136.653758 184.868581 136.462058 185.021941 136.270359 185.253523 136.157978 185.499012 136.156126L192.450593 136.156126C192.633399 136.156126 196.986166 136.190711 198.809289 139.155138 200.237154 141.462451 204.416996 151.200593 204.589921 151.615613 204.609897 151.658192 204.62482 151.702963 204.634387 151.749012 204.659091 151.842885 205.172925 154.125494 202.727273 156.348814 200.90415 158.008893 190.785573 166.546443 190.375494 166.907115 190.221129 167.03247 190.025629 167.095876 189.827075 167.08498zM186.516798 137.771739C188.577075 146.986166 189.846838 157.964427 190.469368 164.644269 193.275692 162.272727 200.172925 156.432806 201.605731 155.128458 203.137352 153.735178 203.087945 152.440711 203.033597 152.164032 202.608696 151.175889 198.690711 142.099802 197.401186 140 196.057312 137.821146 192.460474 137.781621 192.425889 137.781621L186.516798 137.771739z"/>
    <path d="M156.620553,196.116601 C156.022727,196.116601 142.29249,195.918972 138.310277,193.458498 C137.4886,192.965882 136.611219,192.572801 135.69664,192.287549 C134.916008,192.15415 126.80336,190.642292 124.51087,186.230237 C124.441903,186.099768 124.411082,185.952511 124.421937,185.805336 C124.421937,185.508893 126.205534,155.914032 132.08004,135.666996 C132.090292,135.068329 131.898868,134.483615 131.536561,134.006917 C131.275315,133.748254 130.915111,133.614978 130.548419,133.641304 C130.321119,133.642296 130.103985,133.547188 129.950593,133.379447 C129.61668,132.982495 129.480442,132.455707 129.58004,131.94664 C129.767787,130.721344 130.968379,129.476285 133.255929,128.171937 C133.512846,128.013834 140.385375,123.838933 161.373518,123.838933 C175.701581,123.838933 180.642292,125.864625 182.29249,127.559289 C182.655316,127.903486 182.905127,128.349702 183.008893,128.838933 L183.997036,131.215415 L192.045455,131.215415 C192.732213,131.146245 199.219368,130.647233 202.060277,135.879447 C202.677866,137.01087 203.389328,138.226285 204.145257,139.51087 C207.465415,145.172925 211.230237,151.590909 209.58004,155.770751 C207.771739,160.301383 193.577075,171.744071 191.121542,173.700593 C191.615613,180.923913 191.66996,184.896245 191.66996,184.935771 C191.671093,185.068451 191.63881,185.199282 191.576087,185.316206 C190.563241,187.262846 187.860672,189.02668 183.547431,190.573123 C181.581259,191.265411 179.574948,191.837936 177.539526,192.287549 C176.619573,192.566831 175.738211,192.960207 174.916008,193.458498 C170.948617,195.918972 157.22332,196.11166 156.620553,196.116601 Z M126.062253,185.666996 C128.216403,189.342885 135.943676,190.676877 136.012846,190.6917 L136.096838,190.6917 C137.173761,191.010711 138.205006,191.467382 139.16502,192.050395 C142.168972,193.898221 152.786561,194.421937 156.620553,194.466403 C160.439723,194.421937 171.057312,193.898221 174.061265,192.050395 C175.019318,191.466983 176.048985,191.010276 177.124506,190.6917 L177.178854,190.6917 C180.143281,190.079051 188.176877,187.831028 190.024704,184.728261 C190.024704,183.799407 189.916008,179.866601 189.451581,173.364625 C189.433553,173.095191 189.550115,172.834313 189.762846,172.667984 C194.347826,169.046443 206.561265,158.833992 208.043478,155.148221 C209.421937,151.689723 205.716403,145.390316 202.742095,140.326087 C201.976285,139.02668 201.259881,137.801383 200.632411,136.645257 C198.221344,132.198617 192.233202,132.821146 192.178854,132.831028 L183.498024,132.831028 C183.171694,132.830407 182.876781,132.636385 182.747036,132.336957 L181.492095,129.37253 C181.457999,129.287138 181.436368,129.197284 181.427866,129.105731 C181.363636,128.903162 179.980237,125.479249 161.403162,125.479249 C140.879447,125.479249 134.189723,129.540514 134.125494,129.58004 C132.01581,130.795455 131.383399,131.66502 131.245059,132.08498 C131.809702,132.195974 132.3269,132.476985 132.727273,132.890316 C133.416449,133.719744 133.769099,134.777695 133.715415,135.854743 C133.715244,135.920095 133.705251,135.98505 133.685771,136.047431 C128.12253,155.13834 126.259881,182.835968 126.082016,185.666996 L126.062253,185.666996 Z"/>
    <path d="M160.637352 133.641304C154.153538 133.666155 147.681422 133.088907 141.304348 131.916996 140.098713 131.686786 138.881526 131.521855 137.658103 131.422925 134.812253 131.284585 131.012846 133.507905 130.978261 133.527668 130.727668 133.702519 130.400335 133.722551 130.130291 133.579561 129.860247 133.436571 129.692842 133.154572 129.696557 132.849031 129.700397 132.543489 129.874724 132.265716 130.148221 132.129447 130.321146 132.025692 134.402174 129.629447 137.737154 129.79249 139.025236 129.905618 140.306596 130.085372 141.576087 130.331028 147.859164 131.48023 154.235283 132.044239 160.62253 132.01581 173.344862 132.01581 181.566206 127.821146 181.645257 127.77668 181.903851 127.641646 182.214841 127.654828 182.461081 127.81126 182.70732 127.967692 182.851399 128.243609 182.839045 128.535074 182.826691 128.82654 182.65978 129.089275 182.401186 129.224308 182.065217 129.402174 173.784585 133.641304 160.637352 133.641304zM158.255929 191.536561C136.363636 191.536561 125.434783 183.987154 124.980237 183.666008 124.803582 183.5425 124.683419 183.353694 124.64633 183.141361 124.609241 182.929027 124.658284 182.710666 124.782609 182.534585 125.043277 182.168498 125.550013 182.08037 125.918972 182.336957 126.027668 182.411067 136.931818 189.906126 158.255929 189.906126 169.37747 189.906126 177.485178 187.435771 182.332016 185.400198 187.579051 183.171937 190.237154 180.914032 190.237154 180.894269 190.456915 180.704516 190.761214 180.646417 191.035426 180.741859 191.309637 180.837301 191.512101 181.071783 191.566552 181.356978 191.621003 181.642173 191.519168 181.934753 191.299407 182.124506 190.879447 182.509881 180.187747 191.536561 158.255929 191.536561zM158.339921 171.017787C146.442688 171.017787 128.740119 169.23913 128.740119 164.328063 128.740119 159.416996 146.442688 157.633399 158.339921 157.633399 170.237154 157.633399 187.944664 159.416996 187.944664 164.328063 187.944664 169.23913 170.242095 171.017787 158.339921 171.017787zM158.339921 159.263834C141.264822 159.263834 130.365613 162.262846 130.365613 164.328063 130.365613 166.393281 141.264822 169.392292 158.339921 169.392292 175.41502 169.392292 186.31917 166.393281 186.31917 164.328063 186.31917 162.262846 175.41996 159.263834 158.339921 159.263834L158.339921 159.263834zM135.869565 145.928881C135.78921 145.929523 135.709228 145.917859 135.632411 145.894269 135.202897 145.761328 134.960488 145.307362 135.088933 144.876482 135.533679 143.406974 136.05649 141.962234 136.655138 140.548419 136.740817 140.242377 136.99654 140.014025 137.31029 139.963391 137.62404 139.912758 137.938614 140.049073 138.116216 140.312626 138.293818 140.576179 138.302068 140.918919 138.137352 141.190711 137.568997 142.549806 137.07421 143.938508 136.655138 145.350791 136.548747 145.695162 136.229995 145.929715 135.869565 145.928881zM133.507905 157.213439L133.384387 157.213439C132.939756 157.144985 132.634621 156.729294 132.702569 156.284585 133.013834 154.224308 133.453557 151.511858 134.061265 148.824111 134.160862 148.384793 134.597738 148.109395 135.037055 148.208992 135.476373 148.308589 135.751771 148.745465 135.652174 149.184783 135.054348 151.823123 134.619565 154.496047 134.3083 156.531621 134.245194 156.924641 133.90596 157.213619 133.507905 157.213439L133.507905 157.213439z"/>
    <path d="M130.578063 182.312253L130.513834 182.312253C130.066323 182.275474 129.731583 181.885677 129.762846 181.437747 130.009881 178.162055 130.340909 174.65415 130.775692 170.716403 130.803793 170.423868 130.987171 170.1691 131.255655 170.049589 131.52414 169.930078 131.836168 169.964325 132.072339 170.139225 132.30851 170.314125 132.432264 170.602602 132.396245 170.894269 131.961462 174.817194 131.635375 178.305336 131.408103 181.561265 131.374158 181.992004 131.01004 182.321444 130.578063 182.312253zM125.251976 185.13834L117.929842 185.13834C117.624348 185.162177 117.33129 185.012691 117.171243 184.751387 117.011196 184.490084 117.011196 184.161102 117.171243 183.899798 117.33129 183.638494 117.624348 183.489009 117.929842 183.512846L125.251976 183.512846C125.55747 183.489009 125.850528 183.638494 126.010575 183.899798 126.170622 184.161102 126.170622 184.490084 126.010575 184.751387 125.850528 185.012691 125.55747 185.162177 125.251976 185.13834L125.251976 185.13834z"/>
    <path d="M202.939723,201.684783 L103.033597,201.684783 C102.75749,201.682414 102.500408,201.5437 102.346838,201.314229 C102.19702,201.082379 102.174708,200.790463 102.287549,200.538538 L109.683794,183.997036 C109.809682,183.69663 110.104128,183.501633 110.429842,183.502964 L114.130435,183.502964 C114.435929,183.479128 114.728987,183.628613 114.889034,183.889917 C115.04908,184.151221 115.04908,184.480202 114.889034,184.741506 C114.728987,185.00281 114.435929,185.152295 114.130435,185.128458 L110.953557,185.128458 L104.30336,200.044466 L201.882411,200.044466 L197.682806,185.128458 L190.874506,185.128458 C190.569012,185.152295 190.275954,185.00281 190.115907,184.741506 C189.95586,184.480202 189.95586,184.151221 190.115907,183.889917 C190.275954,183.628613 190.569012,183.479128 190.874506,183.502964 L198.285573,183.502964 C198.650645,183.502401 198.971581,183.744617 199.071146,184.09585 L203.725296,200.637352 C203.794808,200.882554 203.745643,201.146156 203.592414,201.349815 C203.439185,201.553474 203.199526,201.673751 202.944664,201.674901 L202.939723,201.684783 Z"/>
    <path d="M202.939723 206.254941L103.033597 206.254941C102.817388 206.254941 102.610034 206.169052 102.457151 206.016169 102.304268 205.863286 102.218379 205.655932 102.218379 205.439723L102.218379 200.869565C102.194543 200.564071 102.344028 200.271013 102.605332 200.110966 102.866636 199.95092 103.195617 199.95092 103.456921 200.110966 103.718225 200.271013 103.86771 200.564071 103.843874 200.869565L103.843874 204.624506 202.124506 204.624506 202.124506 200.869565C202.100669 200.564071 202.250155 200.271013 202.511458 200.110966 202.772762 199.95092 203.101744 199.95092 203.363048 200.110966 203.624351 200.271013 203.773837 200.564071 203.75 200.869565L203.75 205.439723C203.751316 205.655477 203.666529 205.862845 203.514429 206.015872 203.36233 206.168899 203.155481 206.254941 202.939723 206.254941L202.939723 206.254941zM144.23913 92.5691701C143.972641 92.5691701 143.723254 92.4378784 143.572134 92.2183794L126.66502 67.8754941C126.470957 67.6384016 126.426218 67.3125186 126.549207 67.0318998 126.672197 66.7512809 126.942143 66.563318 127.248003 66.5453312 127.553862 66.5273444 127.843979 66.6823713 127.999012 66.9466403L144.911067 91.2895257C145.034412 91.4668167 145.081872 91.6860139 145.042911 91.8984474 145.003949 92.1108808 144.88179 92.2989688 144.703557 92.4209486 144.567927 92.5174463 144.405586 92.5691701 144.23913 92.5691701zM161.403162 119.150347L161.403162 119.150347C161.130378 119.150034 160.875983 119.012624 160.726285 118.784585L145.6917 96.1561265C145.463518 95.7817667 145.572491 95.2939798 145.937884 95.0520169 146.303488 94.8100539 146.794986 94.9005772 147.050395 95.256917L161.413043 116.87253 176.062253 95.2519763C176.321439 94.8981304 176.814139 94.8127867 177.177238 95.0588426 177.540336 95.3048986 177.643663 95.7941432 177.411067 96.1660079L162.094862 118.794466C161.93876 119.021787 161.67887 119.155444 161.403162 119.150347L161.403162 119.150347zM185.770751 82.2877147C185.593076 82.2911593 185.419252 82.2355356 185.27668 82.1294466 184.916494 81.8593074 184.843497 81.348328 185.113636 80.9881423L196.798419 65.3903162C197.071287 65.0301305 197.584478 64.9593455 197.944664 65.2322135 198.30485 65.5050814 198.375635 66.0182728 198.102767 66.3784585L186.413043 81.9713439C186.260643 82.1719569 186.022682 82.2891069 185.770751 82.2877147L185.770751 82.2877147zM180.48419 89.3626641C180.175408 89.3626641 179.893128 89.1881898 179.755037 88.9120071 179.616946 88.6358245 179.646747 88.3053257 179.832016 88.0583004L182.554348 84.4268775C182.827216 84.0666918 183.340407 83.9959068 183.700593 84.2687747 184.060779 84.5416427 184.131564 85.0548341 183.858696 85.4150198L181.136364 89.0464427C180.979865 89.2473937 180.738887 89.3642315 180.48419 89.3626641zM78.5573123 95.444664C78.5079051 98.3745059 76.5810277 100.291502 73.9673913 100.251976L72.7420949 100.251976 72.7816206 97.7420949 73.6116601 97.7420949C75.4249012 97.7717391 76.3685771 96.9614625 76.3982213 95.3853755 76.4278656 93.8092885 75.4990119 93.0237154 74.1403162 93.0039526 72.5642292 92.9743083 71.5662055 93.6561265 70.1185771 95.8745059 68.8043478 97.8507905 67.0405138 99.93083 64.4762846 99.8913043 61.9120553 99.8517787 59.9703557 98.1373518 60.0296443 95.1235178 60.0741107 92.243083 62.0059289 90.4298419 64.6146245 90.4743083L65.7608696 90.4743083 65.7114625 92.8853755 64.8863636 92.8853755C63.4041502 92.8853755 62.2035573 93.562253 62.1788538 95.2420949 62.1788538 96.6304348 62.9693676 97.3616601 64.1551383 97.3814229 65.7312253 97.3814229 66.5711462 96.6996047 68.2658103 94.1650198 69.9604743 91.6304348 71.4970356 90.4545455 73.7944664 90.4940711 76.7144269 90.5335968 78.5573123 92.6432806 78.5573123 95.444664zM79.3379447 84.5849802C78.9229249 87.4357708 76.9416996 89.2243083 74.0365613 88.8043478L60.6521739 86.8626482 61.0128458 84.3527668 74.3972332 86.2944664C75.958498 86.5217391 76.9120553 85.8794466 77.1492095 84.2440711 77.3863636 82.6086957 76.6551383 81.7193676 75.0938735 81.4920949L61.7094862 79.5454545 62.0701581 77.0750988 75.4545455 79.0167984C78.3596838 79.4318182 79.7529644 81.7094862 79.3379447 84.5849802zM74.6047431 71.2252964L73.8685771 73.7648221 80.7114625 75.7411067 80.0395257 78.1571146 62.9743083 73.2164032 64.4120553 68.2756917C65.2124506 65.5088933 67.0602767 64.7134387 69.5158103 65.4249012L71.8774704 66.1116601C74.2588933 66.7885375 75.4150198 68.458498 74.6047431 71.2252964zM68.7055336 67.8162055C67.5790514 67.4901186 66.8181818 67.7173913 66.4920949 68.8438735L65.7460474 71.4031621 71.7934783 73.1620553 72.5395257 70.5978261C72.8656126 69.4713439 72.3171937 68.8685771 71.215415 68.5474308L68.7055336 67.8162055zM78.6067194 60.6126482L77.534585 63.0286561 84.0464427 65.9140316 83.0335968 68.2065217 66.7835968 61.0079051 68.8685771 56.2994071C70.0395257 53.6660983 71.9713439 53.1225296 74.3033597 54.1600791L76.5464427 55.1482213C78.8488142 56.1709486 79.7727273 57.979249 78.6067194 60.6126482zM73.2114625 56.4426877C72.1393281 55.9486166 71.3586957 56.0918972 70.8794466 57.1640316L69.8023715 59.6047431 75.5583004 62.1541502 76.6403162 59.7134387C77.1343874 58.6413043 76.6403162 57.9693676 75.6027668 57.5049407L73.2114625 56.4426877zM90.2124506 54.8418972C88.4535573 57.6729249 85.736166 57.8952569 83.2658103 56.3586957L76.1561265 51.9120553C73.7104743 50.3853755 72.6976285 47.8507905 74.4762846 45.0197628 76.2549407 42.1887352 78.9575099 41.9614625 81.3932806 43.4881423L88.5029644 47.9347826C90.9832016 49.4812253 91.9911067 51.9960474 90.2124506 54.8418972zM79.8962451 45.5335968C78.6017787 44.7282609 77.2529644 44.8270751 76.3784585 46.2351779 75.5039526 47.6432806 76.0227273 48.8735178 77.312253 49.6936759L84.7875494 54.3478261C86.0770751 55.1482213 87.4160079 55.06917 88.2905138 53.6660079 89.1650198 52.2628458 88.6610672 51.0079051 87.3666008 50.2075099L79.8962451 45.5335968zM99.6096838 42.1096838C98.3250988 43.6462451 97.4505929 43.81917 96.0375494 42.6383399L93.3794466 40.4150198C92.4357708 39.6245059 91.4426877 39.5256917 90.6225296 40.5088933L89.0118577 42.43083 94.9407115 47.3962451 93.3102767 49.3379447 79.6887352 37.9397233 82.9940711 33.9871542C84.8418972 31.7737154 86.7687747 31.7193676 88.715415 33.3448617L90.1976285 34.5899209C91.5266798 35.7065217 91.951581 36.8231225 91.1215415 38.3547431 92.4011858 37.2381423 93.9328063 37.6086957 95.0197628 38.5177866L97.4901186 40.5879447C97.8557312 40.8992095 98.1571146 40.8695652 98.5029644 40.4594862L99.9555336 41.6749012 99.6096838 42.1096838zM87.0454545 35.256917C86.2697628 34.6096838 85.4397233 34.4713439 84.673913 35.3952569L83.0039526 37.4011858 87.5494071 41.2005929 89.0316206 39.3972332C89.8171937 38.458498 89.7134387 37.5 88.6907115 36.6452569L87.0454545 35.256917z"/>
    <polygon points="93.948 26.052 104.387 37.441 102.52 39.155 92.08 27.792 89.387 30.262 87.821 28.547 95.059 21.892 96.625 23.602"/>
    <polygon points="111.586 23.221 115.42 29.254 113.305 30.632 109.466 24.6 100.148 17.925 102.441 16.443 109.293 21.793 107.352 13.34 109.486 11.981"/>
    <path d="M123.705534 25.3063241C120.676877 26.6996047 118.270751 25.3952569 117.065217 22.7519763L113.562253 15.1432806C112.356719 12.5247036 112.91996 9.85671937 115.953557 8.45849802 118.987154 7.06027668 121.38834 8.37450593 122.579051 10.9881423L126.082016 18.6017787C127.297431 21.2450593 126.758893 23.8982213 123.705534 25.3063241zM120.212451 11.8577075C119.575099 10.479249 118.389328 9.81719368 116.887352 10.513834 115.385375 11.2104743 115.13834 12.5197628 115.775692 13.9031621L119.456522 21.9021739C120.093874 23.2806324 121.254941 23.9525692 122.756917 23.2608696 124.258893 22.56917 124.530632 21.2401186 123.893281 19.8567194L120.212451 11.8577075zM134.076087 21.4081028C131.309289 22.2233202 128.858696 21.1709486 128.023715 18.3547431L124.189723 5.38043478 126.620553 4.66403162 130.434783 17.6383399C130.879447 19.1205534 131.867589 19.743083 133.453557 19.2786561 135.039526 18.8142292 135.538538 17.7717391 135.093874 16.2598814L131.279644 3.28557312 133.685771 2.57905138 137.519763 15.548419C138.339921 18.3646245 136.857708 20.583004 134.076087 21.4081028zM149.668972 18.1225296C147.692688 18.4090909 146.921937 17.9594862 146.655138 16.1462451L146.161067 12.7124506C145.983202 11.5019763 145.306324 10.7658103 144.041502 10.9486166L141.571146 11.3142292 142.692688 18.9673913 140.187747 19.3379447 137.583992 1.74901186 142.677866.988142292C145.528656.568181818 147.005929 1.8083004 147.376482 4.31324111L147.658103 6.24011858C147.910079 7.95454545 147.480237 9.07114625 145.839921 9.66403162 147.544466 9.66403162 148.433794 10.9782609 148.641304 12.3764822L149.110672 15.5731225C149.179842 16.0671937 149.421937 16.2302372 149.945652 16.1511858L150.222332 18.0237154 149.668972 18.1225296zM144.856719 4.64426877C144.713439 3.65612648 144.184783 2.98913043 142.999012 3.16205534L140.410079 3.53754941 141.269763 9.38735178 143.591897 9.04644269C144.807312 8.86857708 145.365613 8.08794466 145.172925 6.7687747L144.856719 4.64426877z"/>
    <polygon points="155.138 17.757 155.736 0 158.241 .084 157.747 15.548 163.37 15.731 163.295 18.024"/>
    <path d="M168.804348 19.2687747C165.513834 18.7302372 164.263834 16.3043478 164.733202 13.4337945L166.091897 5.16798419C166.561265 2.32213439 168.517787.424901186 171.813241.988142292 175.108696 1.5513834 176.353755 3.95256917 175.884387 6.79347826L174.525692 15.0592885C174.056324 17.9100791 172.119565 19.8073123 168.804348 19.2687747zM173.443676 6.16106719C173.690711 4.67885375 173.078063 3.45355731 171.467391 3.19664032 169.856719 2.93972332 168.893281 3.88339921 168.646245 5.38537549L167.218379 14.0711462C166.971344 15.5533597 167.559289 16.7786561 169.194664 17.0355731 170.83004 17.2924901 171.793478 16.3537549 172.040514 14.8517787L173.443676 6.16106719zM179.51581 21.8231225C176.309289 20.8349802 175.469368 18.1274704 176.25 15.6324111L178.853755 7.3270751C179.634387 4.83201581 181.842885 3.12252964 185.054348 4.12549407 188.26581 5.1284585 189.041502 7.54940711 188.270751 10.0197628L187.692688 11.8577075 185.528656 11.18083 186.086957 9.38735178C186.531621 7.95948617 186.037549 6.7687747 184.456522 6.27964427 182.875494 5.79051383 181.758893 6.49703557 181.353755 7.79644269L178.582016 16.6600791C178.176877 17.9545455 178.666008 19.1699605 180.266798 19.673913 181.867589 20.1778656 182.924901 19.4960474 183.379447 18.0434783L183.932806 16.2598814 186.101779 16.9367589 185.523715 18.7747036C184.752964 21.2450593 182.722332 22.826087 179.51581 21.8231225zM191.833004 26.4179842L192.821146 22.0849802 189.362648 20.4496047 186.66502 23.9822134 184.4417 22.9397233 195.652174 8.58201581 198.068182 9.71837945 194.115613 27.5049407 191.833004 26.4179842zM195.128458 12.722332L190.681818 18.6857708 193.33498 19.9357708 195.128458 12.722332z"/>
    <polygon points="194.867 28.034 204.392 13.034 206.522 14.377 198.216 27.441 202.969 30.459 201.739 32.396"/>
    <path d="M212.524704 41.9960474C211.04249 40.6373518 210.923913 39.7579051 212.168972 38.4041502L214.520751 35.8498024C215.350791 34.9505929 215.508893 33.9624506 214.560277 33.0928854L212.717391 31.3932806 207.470356 37.0948617 205.607708 35.3754941 217.653162 22.3073123 221.437747 25.8003953C223.557312 27.7766798 223.522727 29.6788538 221.80336 31.5464427L220.48419 32.9743083C219.3083 34.2539526 218.171937 34.6195652 216.679842 33.715415 217.737154 35.0494071 217.287549 36.5612648 216.329051 37.5988142L214.140316 39.9752964C213.814229 40.326087 213.829051 40.6274704 214.219368 40.993083L212.944664 42.3863636 212.524704 41.9960474zM219.975296 29.777668C220.662055 29.0316206 220.839921 28.2114625 219.975296 27.4011858L218.05336 25.6274704 214.036561 29.9802372 215.76581 31.5711462C216.66502 32.4061265 217.628458 32.3468379 218.532609 31.3636364L219.975296 29.777668zM216.240119 46.7786561C214.135375 44.1996047 214.797431 41.5513834 217.050395 39.7134387L223.537549 34.416996C225.770751 32.5938735 228.478261 32.4703557 230.602767 35.0543478 232.727273 37.6383399 232.050395 40.2816206 229.817194 42.1047431L223.320158 47.4011858C221.077075 49.2391304 218.379447 49.4071146 216.240119 46.7786561zM228.394269 40.0197628C229.575099 39.0612648 229.916008 37.7470356 228.88834 36.4673913 227.860672 35.187747 226.506917 35.2766798 225.326087 36.2401186L218.507905 41.8083004C217.332016 42.7964427 216.971344 44.0612648 218.013834 45.3409091 219.056324 46.6205534 220.41502 46.5513834 221.590909 45.5879447L228.394269 40.0197628zM224.16502 57.5938735L227.386364 54.5306324 225.385375 51.2549407 221.185771 52.7371542 219.906126 50.6422925 237.15415 44.8023715 238.547431 47.0800395 225.499012 59.7826087 224.16502 57.5938735zM234.44664 47.9693676L227.465415 50.513834 228.997036 53.0187747 234.44664 47.9693676zM227.164032 64.6047431C225.983202 61.916996 226.956522 59.3577075 229.328063 58.3201581L230.449605 57.826087 231.462451 60.1185771 230.706522 60.4545455C229.041502 61.18083 228.522727 62.3171937 229.155138 63.7598814 229.787549 65.2025692 230.953557 65.5335968 232.203557 64.9851779 233.641304 64.3478261 234.268775 63.3152174 234.673913 60.6966403 235.039526 58.3498024 235.780632 55.7213439 238.132411 54.6887352 240.48419 53.6561265 242.964427 54.4021739 244.179842 57.1590909 245.335968 59.7924901 244.342885 62.243083 241.951581 63.2954545L240.899209 63.7598814 239.935771 61.5612648 240.6917 61.2252964C242.060277 60.6225296 242.84585 59.4911067 242.173913 57.9545455 241.620553 56.6847826 240.568182 56.3586957 239.471344 56.8379447 238.028656 57.4752964 237.564229 58.4683794 237.08004 61.4772727 236.59585 64.486166 235.671937 66.2055336 233.552372 67.1294466 230.864625 68.3102767 228.295455 67.1936759 227.164032 64.6047431z"/>
    <polygon points="246.22 70.993 231.398 75.292 230.692 72.861 245.514 68.557 244.496 65.049 246.724 64.402 249.457 73.834 247.228 74.476"/>
    <polygon points="232.53 79.718 250.079 76.927 251.378 85.094 249.116 85.455 248.207 79.763 243.202 80.558 243.854 84.669 241.695 85.015 241.042 80.904 235.178 81.833 236.082 87.525 233.814 87.885"/>
    <path d="M234.021739 98.6067194C233.967391 96.6057312 234.51581 95.8992095 236.348814 95.8448617L239.807312 95.7509881C241.032609 95.7164032 241.842885 95.1333992 241.8083 93.8537549L241.73913 91.3438735 234.001976 91.5612648 233.932806 89.0266798 251.694664 88.5326087 251.837945 93.68083C251.921937 96.5612648 250.518775 97.8853755 247.98419 97.9545455L246.037549 98.0088933C244.30336 98.0583004 243.246047 97.5148221 242.850791 95.8003953 242.628458 97.4901186 241.235178 98.2213439 239.822134 98.270751L236.59585 98.3646245C236.101779 98.3646245 235.909091 98.5968379 235.923913 99.1304348L234.02668 99.1798419 234.021739 98.6067194zM247.974308 95.4150198C248.987154 95.3853755 249.698617 94.9209486 249.664032 93.7401186L249.589921 91.1264822 243.661067 91.2895257 243.730237 93.6363636C243.764822 94.8616601 244.476285 95.513834 245.810277 95.4743083L247.974308 95.4150198zM4.08596838 151.333992C2.63102561 151.316565 1.21211749 150.879054-1.75529332e-15 150.074111L.741106719 148.947628C1.77851613 149.671146 3.00903888 150.066979 4.27371542 150.083992 5.71640316 150.083992 6.39822134 149.530632 6.39822134 148.873518 6.4229249 147.000988.281620553 148.12253.281620553 145.133399.281620553 143.675889 1.76383399 142.529644 4.08596838 142.529644 5.47010454 142.494579 6.8146571 142.993479 7.84090909 143.922925L6.91699605 144.86166C6.11749371 144.176727 5.10401219 143.792303 4.0513834 143.774704 2.68280632 143.774704 1.75395257 144.268775 1.75395257 144.975296 1.76383399 146.73913 7.90513834 145.790514 7.90513834 148.715415 7.90513834 150.281621 6.32411067 151.333992 4.08596838 151.333992z"/>
    <polygon points="13.513 144.071 13.513 151.038 12.031 151.038 12.031 144.071 8.829 144.071 8.829 142.811 16.734 142.811 16.734 144.071"/>
    <path d="M23.7747036,151.037549 L22.8359684,148.987154 L18.6857708,148.987154 L17.7865613,151.037549 L16.2302372,151.037549 L20.1086957,142.811265 L21.4179842,142.811265 L25.3705534,151.037549 L23.7747036,151.037549 Z M20.7509881,144.456522 L19.2045455,147.860672 L22.3320158,147.860672 L20.7509881,144.456522 Z"/>
    <polygon points="29.694 147.727 29.694 151.028 28.211 151.028 28.211 147.727 24.506 142.811 26.235 142.811 29.012 146.616 31.645 142.811 33.35 142.811"/>
    <path d="M44.5405138,151.037549 L43.6017787,148.987154 L39.451581,148.987154 L38.5375494,151.037549 L36.9911067,151.037549 L40.8695652,142.811265 L42.1788538,142.811265 L46.1314229,151.037549 L44.5405138,151.037549 Z M41.5019763,144.456522 L39.9604743,147.860672 L43.083004,147.860672 L41.5019763,144.456522 Z"/>
    <polygon points="50.494 144.071 50.494 151.038 49.012 151.038 49.012 144.071 45.81 144.071 45.81 142.811 53.715 142.811 53.715 144.071"/>
    <polygon points="14.091 165.86 14.091 162.317 9.15 162.317 9.15 165.86 7.668 165.86 7.668 157.633 9.15 157.633 9.15 161.117 14.091 161.117 14.091 157.633 15.573 157.633 15.573 165.86"/>
    <path d="M21.4673913,166.156126 C18.8241107,166.156126 17.2035573,164.278656 17.2035573,162.262846 L17.2035573,161.240119 C17.2035573,159.189723 18.8241107,157.351779 21.4673913,157.351779 C24.1106719,157.351779 25.736166,159.189723 25.736166,161.240119 L25.736166,162.262846 C25.736166,164.278656 24.1205534,166.156126 21.4673913,166.156126 Z M24.2440711,161.240119 C24.2440711,159.832016 23.2559289,158.621542 21.4673913,158.621542 C19.6788538,158.621542 18.7005929,159.832016 18.7005929,161.240119 L18.7005929,162.228261 C18.6803419,162.95678 18.9698596,163.65974 19.4972983,164.16269 C20.024737,164.665641 20.7406564,164.921437 21.4673913,164.866601 C22.19499,164.921218 22.911766,164.665677 23.4407117,164.163084 C23.9696574,163.660492 24.2614644,162.957699 24.2440711,162.228261 L24.2440711,161.240119 Z"/>
    <polygon points="36.285 165.86 36.285 159.412 35.879 160.292 32.964 165.86 32.075 165.86 29.2 160.292 28.79 159.412 28.79 165.86 27.372 165.86 27.372 157.633 29.432 157.633 32.199 163.167 32.609 164.032 32.989 163.192 35.721 157.658 37.757 157.658 37.757 165.86"/>
    <polygon points="39.758 165.86 39.758 157.633 46.477 157.633 46.477 158.893 41.24 158.893 41.24 161.018 45.232 161.018 45.232 162.228 41.24 162.228 41.24 164.6 46.477 164.6 46.477 165.86"/>
    <path d="M257.030632 151.037549L252.583992 151.037549 252.583992 142.811265 256.966403 142.811265C258.942688 142.811265 259.866601 143.666008 259.866601 144.925889L259.866601 145.074111C259.89045 146.003771 259.199742 146.797442 258.275692 146.902174 259.486166 147.099802 259.990119 147.91502 259.990119 148.641304L259.990119 148.863636C260.004941 150.158103 258.967391 151.037549 257.030632 151.037549zM258.448617 145.133399C258.448617 144.540514 258.078063 144.061265 257.065217 144.061265L254.100791 144.061265 254.100791 146.408103 256.976285 146.408103C258.003953 146.408103 258.458498 145.914032 258.458498 145.281621L258.448617 145.133399zM258.448617 148.591897C258.448617 147.949605 258.013834 147.485178 256.966403 147.485178L254.066206 147.485178 254.066206 149.841897 257.055336 149.841897C258.078063 149.841897 258.438735 149.347826 258.438735 148.754941L258.448617 148.591897zM268.280632 151.062253C267.702569 151.062253 267.465415 150.543478 267.43083 149.752964L267.391304 148.799407C267.356719 148.023715 267.035573 147.667984 265.701581 147.667984L263.157115 147.667984 263.157115 151.037549 261.674901 151.037549 261.674901 142.811265 265.726285 142.811265C267.98419 142.811265 268.972332 143.764822 268.972332 145.024704L268.972332 145.148221C268.972332 146.047431 268.54249 146.823123 267.109684 147.124506 268.54249 147.233202 268.898221 147.959486 268.898221 148.863636L268.898221 149.678854C268.866322 150.115791 269.050995 150.54054 269.392292 150.815217L269.392292 151.086957 268.280632 151.062253zM267.465415 145.158103C267.465415 144.589921 267.060277 144.061265 265.899209 144.061265L263.157115 144.061265 263.157115 146.566206 265.958498 146.566206C266.986166 146.566206 267.465415 146.072134 267.465415 145.395257L267.465415 145.158103z"/>
    <polygon points="270.84 151.038 270.84 142.811 277.559 142.811 277.559 144.071 272.322 144.071 272.322 146.196 276.309 146.196 276.309 147.406 272.322 147.406 272.322 149.778 277.559 149.778 277.559 151.038"/>
    <polygon points="288.785 151.038 287.441 151.038 285.079 144.862 282.693 151.038 281.339 151.038 278.261 142.811 279.842 142.811 282.065 149.16 284.486 142.811 285.721 142.811 288.192 149.16 290.415 142.811 291.996 142.811"/>
    <path d="M303.176877,151.037549 L302.238142,148.987154 L298.087945,148.987154 L297.173913,151.037549 L295.632411,151.037549 L299.505929,142.811265 L300.815217,142.811265 L304.767787,151.037549 L303.176877,151.037549 Z M300.123518,144.456522 L298.582016,147.860672 L301.704545,147.860672 L300.123518,144.456522 Z"/>
    <polygon points="309.13 144.071 309.13 151.038 307.648 151.038 307.648 144.071 304.452 144.071 304.452 142.811 312.327 142.811 312.327 144.071"/>
    <polygon points="269.432 165.86 269.432 162.317 264.491 162.317 264.491 165.86 263.009 165.86 263.009 157.633 264.491 157.633 264.491 161.117 269.432 161.117 269.432 157.633 270.914 157.633 270.914 165.86"/>
    <path d="M276.80336,166.156126 C274.16502,166.156126 272.544466,164.278656 272.544466,162.262846 L272.544466,161.240119 C272.544466,159.189723 274.16502,157.351779 276.80336,157.351779 C279.4417,157.351779 281.077075,159.189723 281.077075,161.240119 L281.077075,162.262846 C281.077075,164.278656 279.461462,166.156126 276.80336,166.156126 Z M279.58498,161.240119 C279.58498,159.832016 278.596838,158.621542 276.80336,158.621542 C275.009881,158.621542 274.041502,159.832016 274.041502,161.240119 L274.041502,162.228261 C274.129109,163.69486 275.344028,164.839372 276.813241,164.839372 C278.282454,164.839372 279.497373,163.69486 279.58498,162.228261 L279.58498,161.240119 Z"/>
    <polygon points="291.625 165.86 291.625 159.412 291.22 160.292 288.305 165.86 287.416 165.86 284.541 160.292 284.13 159.412 284.13 165.86 282.712 165.86 282.712 157.633 284.773 157.633 287.54 163.167 287.92 164.007 288.305 163.167 291.033 157.633 293.073 157.633 293.073 165.86"/>
    <polygon points="295.099 165.86 295.099 157.633 301.818 157.633 301.818 158.893 296.581 158.893 296.581 161.018 300.568 161.018 300.568 162.228 296.581 162.228 296.581 164.6 301.818 164.6 301.818 165.86"/>
  </g>
</svg>
